<?xml version="1.0" standalone="no"?>
<!DOCTYPE svg PUBLIC "-//W3C//DTD SVG 20010904//EN"
 "http://www.w3.org/TR/2001/REC-SVG-20010904/DTD/svg10.dtd">
<svg version="1.0" xmlns="http://www.w3.org/2000/svg"
 width="337.000000pt" height="337.000000pt" viewBox="0 0 337.000000 337.000000"
 preserveAspectRatio="xMidYMid meet">
<metadata>
Created by potrace 1.11, written by Peter Selinger 2001-2013
</metadata>
<g transform="translate(0.000000,337.000000) scale(0.100000,-0.100000)"
fill="#000000" stroke="none">
<path d="M788 3149 c-37 -5 -102 -22 -146 -38 -248 -90 -418 -306 -452 -572
-14 -113 -14 -1645 0 -1758 41 -325 286 -570 611 -611 113 -14 1645 -14 1758
0 325 41 570 286 611 611 14 113 14 1645 0 1758 -41 325 -286 570 -611 611
-101 12 -1672 12 -1771 -1z m190 -831 l2 -458 285 0 285 0 2 458 3 457 150 0
150 0 0 -510 c0 -503 0 -510 -20 -510 -20 0 -20 8 -23 488 l-2 487 -100 0
-100 0 0 -447 c0 -247 -4 -454 -8 -461 -7 -9 -81 -12 -338 -10 l-329 3 -3 458
-2 457 -105 0 -105 0 -2 -487 c-3 -480 -3 -488 -23 -488 -20 0 -20 8 -23 500
-1 275 0 506 3 513 3 10 40 12 152 10 l148 -3 3 -457z m1541 -320 c171 -169
311 -314 311 -322 0 -20 -618 -621 -638 -621 -16 0 -17 26 -17 290 0 283 0
290 20 290 19 0 20 -8 25 -245 l5 -245 262 259 c145 143 267 262 273 266 10 6
-115 134 -405 415 l-130 126 -5 -243 c-5 -235 -6 -243 -25 -243 -19 0 -20 8
-23 280 -1 154 0 286 3 293 3 7 11 12 19 10 8 -2 154 -141 325 -310z m-1799
-843 l0 -515 105 0 105 0 0 480 0 480 338 -2 337 -3 3 -477 2 -478 100 0 100
0 0 515 0 515 25 0 25 0 -2 -537 -3 -538 -150 0 -150 0 -3 473 -2 472 -285 0
-285 0 -2 -472 -3 -473 -150 0 -150 0 -3 538 -2 537 25 0 25 0 0 -515z"/>
</g>
</svg>
